
<svg xmlns="http://www.w3.org/2000/svg" version="1.1" xmlns:xlink="http://www.w3.org/1999/xlink" preserveAspectRatio="none" x="0px" y="0px" width="512px" height="512px" viewBox="0 0 512 512">
<defs>
<g id="___2_0_Layer0_0_FILL">
<path fill="#C0C4CC" stroke="none" d="
M 150.55 25.8
Q 124.75 0 88.2 0 51.65 0 25.8 25.8 0 51.65 0 88.2 0 124.75 25.8 150.55 51.65 176.4 88.2 176.4 124.75 176.4 150.55 150.55 176.4 124.75 176.4 88.2 176.4 51.65 150.55 25.8 Z"/>
</g>

<g id="___2_0_Layer0_1_FILL">
<path fill="#FFFFFF" stroke="none" d="
M 134.35 88.6
Q 148.55 74.1 148.55 53.65 148.55 33.2 134.35 18.75 120.1 4.3 100 4.3 79.85 4.3 65.65 18.75 51.4 33.2 51.4 53.65 51.4 74.1 65.65 88.6 79.85 103.05 100 103.05 120.1 103.05 134.35 88.6
M 177.05 195.75
L 184.85 195.75
Q 184.1 178.85 177.1 163.9 170.4 149.45 158.7 138.5 147.1 127.6 132.2 121.7 116.85 115.6 100 115.6 83.15 115.6 67.8 121.7 52.85 127.6 41.25 138.5 16.65 161.55 15.1 195.75
L 22.9 195.75
Q 33.1 173.85 53.65 160.8 74.55 147.55 99.95 147.55 125.3 147.55 146.25 160.8 166.8 173.8 177.05 195.75 Z"/>
</g>
</defs>

<g transform="matrix( 2.902557373046875, 0, 0, 2.902557373046875, 0,0) ">
<g transform="matrix( 1, 0, 0, 1, 0,0) ">
<use xlink:href="#___2_0_Layer0_0_FILL"/>
</g>

<g transform="matrix( 0.5126953125, 0, 0, 0.5126953125, 37.65,34.35) ">
<use xlink:href="#___2_0_Layer0_1_FILL"/>
</g>
</g>
</svg>
