
<svg xmlns="http://www.w3.org/2000/svg" version="1.1" xmlns:xlink="http://www.w3.org/1999/xlink" preserveAspectRatio="none" x="0px" y="0px" width="256px" height="256px" viewBox="0 0 256 256">
<defs>
<g id="___1_0_Layer0_0_FILL">
<path fill="#409EFF" stroke="none" d="
M 284.7 142.35
Q 284.7 83.4 243 41.7 201.3 0 142.35 0 83.4 0 41.7 41.7 0 83.4 0 142.35 0 201.3 41.7 243 83.4 284.7 142.35 284.7 201.3 284.7 243 243 284.7 201.3 284.7 142.35
M 198.6 175.8
L 198.6 188.2 207.1 188.2 207.1 175.8 221.3 175.8 221.3 209.1 81.45 209.1 81.45 73.9 114.75 73.9 114.75 175.8 126.05 175.8 126.05 188.2 134.55 188.2 134.55 175.8 150.25 175.8 150.25 188.2 158.75 188.2 158.75 175.8 174.4 175.8 174.4 188.2 182.9 188.2 182.9 175.8 198.6 175.8 Z"/>
</g>
</defs>

<g transform="matrix( 0.8991851806640625, 0, 0, 0.8991851806640625, 0,0) ">
<g transform="matrix( 1, 0, 0, 1, 0,0) ">
<use xlink:href="#___1_0_Layer0_0_FILL"/>
</g>
</g>
</svg>
